<?xml version="1.0" encoding="utf-8"?><svg viewBox="0 0 151 124" xmlns="http://www.w3.org/2000/svg" xmlns:xlink="http://www.w3.org/1999/xlink"><style>:root>svg{display:none}:root>svg:target{display:block}</style><svg fill="none" viewBox="0 0 77 77" id="play-button" xmlns="http://www.w3.org/2000/svg"><path fill-rule="evenodd" clip-rule="evenodd" d="M74 38.5C74 58.106 58.106 74 38.5 74S3 58.106 3 38.5 18.894 3 38.5 3 74 18.894 74 38.5Zm3 0C77 59.763 59.763 77 38.5 77S0 59.763 0 38.5 17.237 0 38.5 0 77 17.237 77 38.5ZM32.25 51.057 51 38.5 32.25 25.943v25.114Z" fill="#fff"/></svg><svg fill="none" viewBox="0 0 62 71" id="polygon-arrow" xmlns="http://www.w3.org/2000/svg"><path fill-rule="evenodd" clip-rule="evenodd" d="M62 17.75 31 0 0 17.75v35.5L31 71l31-17.75v-35.5ZM31 3.282l28.134 16.11v32.217L31 67.717 2.866 51.61V19.39L31 3.282Zm-11.74 27.73a1.95 1.95 0 1 0-2.52 2.977l13 11a1.95 1.95 0 0 0 2.52 0l13-11a1.95 1.95 0 1 0-2.52-2.978L31 40.946 19.26 31.01Z" fill="#FF8B00"/></svg><svg fill="none" viewBox="0 0 39 39" id="twitter-circle" xmlns="http://www.w3.org/2000/svg"><path fill-rule="evenodd" clip-rule="evenodd" d="M19.5 39C30.27 39 39 30.27 39 19.5S30.27 0 19.5 0 0 8.73 0 19.5 8.73 39 19.5 39Zm18-19.5c0 9.941-8.059 18-18 18s-18-8.059-18-18 8.059-18 18-18 18 8.059 18 18Zm-10.775-2.032c0-.15 0-.3-.01-.448a7.037 7.037 0 0 0 1.727-1.795 6.878 6.878 0 0 1-1.988.545 3.478 3.478 0 0 0 1.522-1.916 6.944 6.944 0 0 1-2.199.84 3.463 3.463 0 0 0-4.898-.15 3.47 3.47 0 0 0-1.001 3.312 9.822 9.822 0 0 1-7.135-3.62 3.472 3.472 0 0 0 1.072 4.627 3.437 3.437 0 0 1-1.571-.434v.044c0 1.65 1.162 3.07 2.777 3.397-.51.14-1.044.16-1.563.06a3.467 3.467 0 0 0 3.234 2.406 6.946 6.946 0 0 1-5.123 1.437 9.79 9.79 0 0 0 5.306 1.553v.003c6.367 0 9.85-5.281 9.85-9.86Z" fill="#fff"/></svg><svg fill="none" viewBox="0 0 151 124" id="twitter-logo" xmlns="http://www.w3.org/2000/svg"><path d="M135.139 31.176c.091 1.32.091 2.638.091 3.97 0 40.56-30.93 87.341-87.488 87.341v-.025A87.15 87.15 0 0 1 .609 108.701a61.803 61.803 0 0 0 45.507-12.722c-13.158-.25-24.696-8.814-28.727-21.318 4.61.888 9.359.706 13.883-.528C16.927 71.239 6.606 58.657 6.606 44.044v-.389a30.593 30.593 0 0 0 13.956 3.842C7.05 38.483 2.886 20.539 11.045 6.51a87.321 87.321 0 0 0 63.371 32.07A30.682 30.682 0 0 1 83.312 9.25c12.384-11.622 31.862-11.026 43.504 1.332a61.764 61.764 0 0 0 19.526-7.453 30.816 30.816 0 0 1-13.517 16.978 61.224 61.224 0 0 0 17.657-4.833 62.398 62.398 0 0 1-15.343 15.901Z" fill="#fff"/></svg></svg>